<?xml version="1.0" standalone="no"?>
<!DOCTYPE svg PUBLIC "-//W3C//DTD SVG 20010904//EN"
 "http://www.w3.org/TR/2001/REC-SVG-20010904/DTD/svg10.dtd">
<svg version="1.0" xmlns="http://www.w3.org/2000/svg"
 width="260.000000pt" height="260.000000pt" viewBox="0 0 260.000000 260.000000"
 preserveAspectRatio="xMidYMid meet">
<metadata>
Created by potrace 1.11, written by Peter Selinger 2001-2013
</metadata>
<g transform="translate(0.000000,260.000000) scale(0.100000,-0.100000)"
fill="#000000" stroke="none">
<path d="M0 1300 l0 -1300 1300 0 1300 0 0 1300 0 1300 -1300 0 -1300 0 0
-1300z m1575 986 c54 -32 102 -94 117 -152 10 -37 16 -42 62 -58 99 -35 176
-146 176 -255 0 -19 -27 -156 -61 -305 -33 -149 -64 -288 -68 -308 -5 -21 -8
-38 -6 -38 2 0 22 16 46 35 104 88 191 112 286 81 190 -63 254 -320 120 -473
-41 -47 -591 -488 -637 -510 -31 -16 -78 -18 -450 -21 -295 -2 -427 0 -457 9
-54 15 -113 66 -141 121 -30 58 -138 533 -145 633 -3 45 -35 210 -72 374 -76
331 -78 362 -28 453 32 59 95 112 152 128 33 9 41 16 56 57 40 103 129 167
235 167 78 0 129 -23 184 -84 48 -53 49 -58 102 -295 25 -110 47 -201 49 -203
5 -5 1 -20 65 266 28 123 56 238 64 256 21 51 76 107 131 133 67 32 153 28
220 -11z"/>
<path d="M1376 2138 c-31 -32 -35 -49 -121 -435 l-90 -403 -67 0 c-55 0 -68 3
-72 18 -3 9 -35 150 -71 312 -36 162 -72 318 -80 347 -30 103 -123 137 -190
70 -19 -19 -37 -46 -41 -62 -5 -19 16 -129 66 -352 40 -178 70 -327 66 -330
-14 -15 -26 21 -71 227 -26 118 -54 232 -63 253 -20 53 -55 77 -109 77 -38 0
-50 -5 -79 -34 -28 -28 -34 -41 -34 -78 0 -25 29 -174 65 -331 36 -158 65
-307 65 -333 0 -53 22 -165 84 -423 37 -159 47 -188 70 -208 l27 -23 407 0
c383 0 409 1 437 19 72 46 562 449 582 480 27 40 31 107 8 151 -25 47 -62 70
-116 70 -47 0 -53 -3 -224 -140 -96 -77 -177 -140 -180 -140 -3 0 -5 57 -5
126 0 120 3 140 75 459 41 184 75 349 75 367 0 77 -78 140 -146 118 -66 -22
-74 -43 -143 -353 -48 -214 -68 -287 -79 -287 -9 0 -13 7 -10 18 3 9 40 175
83 368 86 388 87 405 33 456 -24 22 -40 28 -75 28 -38 0 -50 -5 -77 -32z"/>
</g>
</svg>
