<?xml version="1.0" standalone="no"?>
<!DOCTYPE svg PUBLIC "-//W3C//DTD SVG 20010904//EN"
 "http://www.w3.org/TR/2001/REC-SVG-20010904/DTD/svg10.dtd">
<svg version="1.0" xmlns="http://www.w3.org/2000/svg"
 width="260.000000pt" height="260.000000pt" viewBox="0 0 260.000000 260.000000"
 preserveAspectRatio="xMidYMid meet">
<metadata>
Created by potrace 1.11, written by Peter Selinger 2001-2013
</metadata>
<g transform="translate(0.000000,260.000000) scale(0.100000,-0.100000)"
fill="#000000" stroke="none">
<path d="M0 1300 l0 -1300 1300 0 1300 0 0 1300 0 1300 -1300 0 -1300 0 0
-1300z m741 11 c76 -184 139 -336 139 -338 0 -3 -16 -3 -36 -1 -35 3 -37 4
-78 103 l-42 100 -156 3 -156 2 -10 -27 c-5 -16 -24 -63 -42 -105 -31 -76 -33
-78 -66 -78 -19 0 -34 2 -34 4 0 3 59 146 131 318 72 172 135 323 140 336 7
19 15 23 40 20 30 -3 32 -7 170 -337z m169 38 l123 -301 65 153 64 153 -56
138 c-31 75 -56 142 -56 148 0 14 46 13 57 -2 5 -7 29 -62 53 -122 l43 -108
47 118 c46 114 49 119 79 122 17 2 31 0 31 -5 0 -4 -25 -68 -55 -142 -30 -73
-55 -138 -55 -144 0 -12 123 -307 126 -304 2 2 209 504 241 585 3 6 21 12 40
12 29 0 34 -3 29 -17 -4 -10 -68 -163 -143 -340 l-136 -323 -31 0 c-31 0 -32
2 -100 165 -38 91 -72 163 -75 160 -3 -3 -35 -76 -72 -163 -67 -155 -68 -157
-99 -157 l-32 0 -139 329 c-76 181 -139 333 -139 338 0 4 15 8 33 8 l33 0 124
-301z m1300 266 c38 -36 50 -58 61 -105 12 -53 -8 -116 -50 -158 -22 -22 -31
-37 -23 -40 24 -8 73 -54 87 -83 19 -36 19 -122 1 -157 -19 -37 -55 -68 -98
-87 -29 -12 -78 -15 -218 -15 l-180 0 0 341 0 340 194 -3 195 -3 31 -30z"/>
<path d="M499 1403 l-65 -158 129 -3 c71 -1 132 -1 134 2 5 5 -120 316 -128
316 -3 0 -34 -71 -70 -157z"/>
<path d="M1860 1464 l0 -126 139 4 c132 3 141 4 165 27 58 55 56 158 -3 200
-26 19 -44 21 -165 21 l-136 0 0 -126z"/>
<path d="M1860 1161 l0 -131 144 0 c132 0 146 2 177 23 69 46 73 141 9 202
l-31 30 -150 3 -149 3 0 -130z"/>
</g>
</svg>
